<?xml version="1.0" encoding="iso-8859-1"?>
<!-- Uploaded to: SVG Repo, www.svgrepo.com, Generator: SVG Repo Mixer Tools -->
<svg version="1.1" id="Layer_1" xmlns="http://www.w3.org/2000/svg" xmlns:xlink="http://www.w3.org/1999/xlink" 
	 viewBox="0 0 512.001 512.001" xml:space="preserve">
<circle style="fill:#DFDFE2;" cx="256" cy="71.539" r="62.241"/>
<path style="opacity:0.35;fill:#C6C3CB;enable-background:new    ;" d="M209.747,115.949l87.565-90.971
	c0,0,18.017,12.418,20.935,35.721c2.918,23.305,2.631,51.95-29.806,67.158s-47.138,4.064-47.138,4.064L209.747,115.949z"/>
<g>
	<path style="opacity:0.16;fill:#174F79;enable-background:new    ;" d="M44.181,345.642v-49.637
		c0-34.052,27.86-61.911,61.911-61.911l0,0c34.052,0,61.911,27.86,61.911,61.911v49.637H44.181z"/>
	<path style="opacity:0.16;fill:#174F79;enable-background:new    ;" d="M196.11,345.642v-49.637
		c0-34.052,27.86-61.911,61.911-61.911l0,0c34.052,0,61.911,27.86,61.911,61.911v49.637H196.11z"/>
	<path style="opacity:0.16;fill:#174F79;enable-background:new    ;" d="M348.038,345.642v-49.637
		c0-34.052,27.86-61.911,61.911-61.911l0,0c34.052,0,61.911,27.86,61.911,61.911v49.637H348.038z"/>
</g>
<g>
	<path style="fill:#73AFD6;" d="M44.181,417.244v-59.775c0-34.052,27.86-61.911,61.911-61.911l0,0
		c34.052,0,61.911,27.86,61.911,61.911v59.775H44.181z"/>
	<path style="fill:#73AFD6;" d="M196.11,417.244v-59.775c0-34.052,27.86-61.911,61.911-61.911l0,0
		c34.052,0,61.911,27.86,61.911,72.05v49.637H196.11z"/>
	<path style="fill:#73AFD6;" d="M348.038,417.244v-59.775c0-34.052,27.86-61.911,61.911-61.911l0,0
		c34.052,0,61.911,27.86,61.911,72.05v49.637H348.038z"/>
	<path style="opacity:0.35;fill:#73AFD6;enable-background:new    ;" d="M44.181,374.474v-49.637
		c0-34.052,27.86-61.911,61.911-61.911l0,0c34.052,0,61.911,27.86,61.911,61.911v49.637H44.181z"/>
	<path style="opacity:0.35;fill:#73AFD6;enable-background:new    ;" d="M196.11,374.474v-49.637
		c0-34.052,27.86-61.911,61.911-61.911l0,0c34.052,0,61.911,27.86,61.911,61.911v49.637H196.11z"/>
	<path style="opacity:0.35;fill:#73AFD6;enable-background:new    ;" d="M348.038,374.474v-49.637
		c0-34.052,27.86-61.911,61.911-61.911l0,0c34.052,0,61.911,27.86,61.911,61.911v49.637H348.038z"/>
	<rect x="7.604" y="407.106" style="fill:#73AFD6;" width="496.792" height="37.169"/>
	<polyline style="fill:#73AFD6;" points="60.842,444.275 60.842,504.397 27.52,504.397 27.52,444.275 	"/>
	<polyline style="fill:#73AFD6;" points="488.522,444.275 488.522,504.397 455.199,504.397 455.199,444.275 	"/>
	<polyline style="fill:#73AFD6;" points="279.485,444.275 279.485,504.397 246.164,504.397 246.164,444.275 	"/>
</g>
<g>
	<rect x="27.516" y="444.275" style="fill:#174F79;" width="33.323" height="16.569"/>
	<rect x="44.181" y="390.651" style="fill:#174F79;" width="123.823" height="16.569"/>
	<rect x="196.111" y="390.651" style="fill:#174F79;" width="123.823" height="16.569"/>
	<rect x="348.038" y="390.651" style="fill:#174F79;" width="123.823" height="16.569"/>
	<rect x="246.166" y="444.275" style="fill:#174F79;" width="33.323" height="16.569"/>
	<rect x="455.204" y="444.275" style="fill:#174F79;" width="33.323" height="16.569"/>
</g>
<path d="M504.396,399.501h-24.931v-42.033c0-3.014-0.214-5.978-0.588-8.893c0.378-0.903,0.588-1.894,0.588-2.935v-49.637
	c0-38.331-31.184-69.515-69.514-69.515s-69.515,31.184-69.515,69.515v49.637c0,1.04,0.21,2.032,0.588,2.935
	c-0.374,2.914-0.588,5.877-0.588,8.893v42.033h-12.898v-42.033c0-3.014-0.214-5.978-0.588-8.893
	c0.378-0.903,0.588-1.894,0.588-2.935v-49.637c0-38.331-31.184-69.515-69.514-69.515s-69.515,31.184-69.515,69.515v49.637
	c0,1.04,0.21,2.032,0.588,2.934c-0.374,2.914-0.588,5.877-0.588,8.893V399.5h-12.898v-42.033c0-3.014-0.214-5.978-0.588-8.893
	c0.378-0.903,0.588-1.894,0.588-2.934v-49.637c0-38.331-31.184-69.515-69.515-69.515s-69.514,31.184-69.514,69.515v49.637
	c0,1.04,0.21,2.032,0.588,2.934c-0.374,2.915-0.588,5.878-0.588,8.893V399.5H7.604C3.405,399.5,0,402.905,0,407.104v37.17
	c0,4.199,3.405,7.604,7.604,7.604h12.312v52.518c0,4.199,3.405,7.604,7.604,7.604h33.322c4.199,0,7.604-3.405,7.604-7.604v-52.518
	H238.56v52.518c0,4.199,3.405,7.604,7.604,7.604h33.323c4.2,0,7.604-3.405,7.604-7.604v-52.518h160.506v52.518
	c0,4.199,3.404,7.604,7.604,7.604h33.323c4.2,0,7.604-3.405,7.604-7.604v-52.518h8.27c4.2,0,7.604-3.405,7.604-7.604v-37.17
	C512,402.906,508.596,399.501,504.396,399.501z M355.642,296.007c0-29.945,24.362-54.307,54.307-54.307
	c29.944,0,54.306,24.362,54.306,54.307v18.142c-12.748-15.949-32.348-26.195-54.306-26.195c-21.959,0-41.559,10.246-54.307,26.195
	V296.007z M355.642,357.469c0-29.945,24.362-54.307,54.307-54.307c29.944,0,54.306,24.362,54.306,54.307v42.033H355.642V357.469z
	 M203.714,296.007c0-29.945,24.362-54.307,54.307-54.307c29.944,0,54.306,24.362,54.306,54.307v18.142
	c-12.748-15.949-32.348-26.195-54.306-26.195c-21.959,0-41.558,10.246-54.307,26.195L203.714,296.007L203.714,296.007z
	 M203.714,357.469c0-29.945,24.362-54.307,54.307-54.307c29.944,0,54.306,24.362,54.306,54.307v42.033H203.714V357.469z
	 M51.785,296.007c0-29.945,24.362-54.307,54.307-54.307s54.306,24.362,54.306,54.307v18.143
	c-12.748-15.949-32.348-26.195-54.307-26.195c-21.958,0-41.558,10.245-54.306,26.195C51.785,314.15,51.785,296.007,51.785,296.007z
	 M51.785,357.469c0-29.945,24.362-54.307,54.307-54.307s54.306,24.362,54.306,54.307v42.033H51.785V357.469z M53.238,496.793H35.124
	v-44.914h18.114V496.793z M271.882,496.793h-18.115v-44.914h18.115V496.793z M480.918,496.793h-18.115v-44.914h18.115V496.793z
	 M496.792,436.671H15.208v-21.962h28.973h123.822h28.106h123.822h28.106H471.86h24.932V436.671z"/>
<path d="M256.003,143.066c39.443,0,71.533-32.09,71.533-71.533S295.447,0.001,256.003,0.001c-39.443,0-71.533,32.09-71.533,71.533
	S216.561,143.066,256.003,143.066z M256.003,15.208c31.058,0,56.325,25.267,56.325,56.325s-25.267,56.325-56.325,56.325
	s-56.325-25.267-56.325-56.325S224.946,15.208,256.003,15.208z"/>
<path d="M235.649,98.891c1.908,0,3.818-0.714,5.295-2.147l13.251-12.86c0.026,0.004,0.051,0.011,0.077,0.015
	c6.829,0.956,13.14-3.805,14.096-10.634c0.645-4.609-1.32-8.975-4.761-11.624V30.113c0-4.199-3.404-7.604-7.604-7.604
	c-4.199,0-7.604,3.405-7.604,7.604v31.523c-2.505,1.924-4.289,4.79-4.761,8.167c-0.15,1.074-0.144,2.13-0.026,3.159L230.352,85.83
	c-3.014,2.925-3.086,7.739-0.161,10.752C231.683,98.119,233.665,98.891,235.649,98.891z"/>
</svg>